<svg width="154" height="26" viewBox="0 0 154 26" fill="none" xmlns="http://www.w3.org/2000/svg">
<path d="M33.7148 1.81967H35.9062L41.4961 13.9816L47.0742 1.81967H49.2773L42.3398 16.7377H40.6289L33.7148 1.81967ZM33 1.81967H34.9336L35.25 10.918V16.7377H33V1.81967ZM48.0469 1.81967H49.9805V16.7377H47.7305V10.918L48.0469 1.81967Z" fill="#996DFF"/>
<path d="M53.0508 11.3176V11.082C53.0508 10.2828 53.1836 9.54167 53.4492 8.85861C53.7148 8.16872 54.0977 7.57104 54.5977 7.06557C55.0977 6.55328 55.7031 6.1571 56.4141 5.87705C57.125 5.59016 57.9219 5.44672 58.8047 5.44672C59.6953 5.44672 60.4961 5.59016 61.207 5.87705C61.9258 6.1571 62.5352 6.55328 63.0352 7.06557C63.543 7.57104 63.9297 8.16872 64.1953 8.85861C64.4609 9.54167 64.5938 10.2828 64.5938 11.082V11.3176C64.5938 12.1168 64.4609 12.8579 64.1953 13.541C63.9297 14.224 63.543 14.8217 63.0352 15.334C62.5352 15.8395 61.9297 16.2357 61.2188 16.5225C60.5156 16.8026 59.7188 16.9426 58.8281 16.9426C57.9375 16.9426 57.1367 16.8026 56.4258 16.5225C55.7148 16.2357 55.1055 15.8395 54.5977 15.334C54.0977 14.8217 53.7148 14.224 53.4492 13.541C53.1836 12.8579 53.0508 12.1168 53.0508 11.3176ZM55.2188 11.082V11.3176C55.2188 11.8709 55.293 12.3934 55.4414 12.8852C55.5898 13.3702 55.8125 13.8005 56.1094 14.1762C56.4141 14.5519 56.793 14.849 57.2461 15.0676C57.6992 15.2794 58.2266 15.3852 58.8281 15.3852C59.4219 15.3852 59.9414 15.2794 60.3867 15.0676C60.8398 14.849 61.2148 14.5519 61.5117 14.1762C61.8086 13.8005 62.0312 13.3702 62.1797 12.8852C62.3359 12.3934 62.4141 11.8709 62.4141 11.3176V11.082C62.4141 10.5355 62.3359 10.0198 62.1797 9.53484C62.0312 9.04303 61.8047 8.60929 61.5 8.23361C61.2031 7.85109 60.8281 7.55055 60.375 7.33197C59.9297 7.11339 59.4062 7.0041 58.8047 7.0041C58.2109 7.0041 57.6875 7.11339 57.2344 7.33197C56.7891 7.55055 56.4141 7.85109 56.1094 8.23361C55.8125 8.60929 55.5898 9.04303 55.4414 9.53484C55.293 10.0198 55.2188 10.5355 55.2188 11.082Z" fill="#996DFF"/>
<path d="M69.4805 8.01844V16.7377H67.3125V5.65164H69.3633L69.4805 8.01844ZM68.9648 10.7746L68.0625 10.7439C68.0703 9.98566 68.1992 9.28552 68.4492 8.64344C68.6992 7.99454 69.0508 7.43101 69.5039 6.95287C69.957 6.47473 70.4961 6.10587 71.1211 5.84631C71.7539 5.57992 72.4531 5.44672 73.2188 5.44672C73.8438 5.44672 74.4062 5.52186 74.9062 5.67213C75.4062 5.81557 75.832 6.04781 76.1836 6.36885C76.543 6.68989 76.8164 7.10656 77.0039 7.61885C77.1914 8.12432 77.2852 8.74249 77.2852 9.47336V16.7377H75.1055V9.45287C75.1055 8.87227 75.0078 8.40779 74.8125 8.05943C74.6172 7.70423 74.332 7.44809 73.957 7.29098C73.582 7.12705 73.1211 7.04508 72.5742 7.04508C72.0352 7.04508 71.543 7.14413 71.0977 7.34221C70.6602 7.5403 70.2812 7.81352 69.9609 8.16189C69.6484 8.51025 69.4023 8.90984 69.2227 9.36066C69.0508 9.80464 68.9648 10.276 68.9648 10.7746Z" fill="#996DFF"/>
<path d="M82.7578 1V16.7377H80.5781V1H82.7578ZM90.5039 5.65164L84.9727 10.8258L81.8789 13.6332L81.7031 11.6148L83.918 9.29918L87.8555 5.65164H90.5039ZM88.5234 16.7377L84 11.4508L85.125 9.76025L91.0781 16.7377H88.5234Z" fill="#996DFF"/>
<path d="M103.145 8.23361V9.84221H93.9102V8.23361H103.145ZM94.2617 1.81967V16.7377H92V1.81967H94.2617ZM105.113 1.81967V16.7377H102.863V1.81967H105.113Z" fill="#00B37E"/>
<path d="M114.066 16.9426C113.184 16.9426 112.383 16.8128 111.664 16.5533C110.953 16.2869 110.34 15.9146 109.824 15.4365C109.316 14.9583 108.926 14.3914 108.652 13.7357C108.379 13.0799 108.242 12.3627 108.242 11.584V11.1537C108.242 10.252 108.395 9.44945 108.699 8.7459C109.004 8.03552 109.418 7.43443 109.941 6.94262C110.465 6.45082 111.059 6.07855 111.723 5.82582C112.387 5.57309 113.074 5.44672 113.785 5.44672C114.691 5.44672 115.473 5.58333 116.129 5.85656C116.793 6.12978 117.336 6.5123 117.758 7.0041C118.18 7.48907 118.492 8.06284 118.695 8.72541C118.898 9.38115 119 10.0984 119 10.877V11.7275H109.531V10.1803H116.832V10.0369C116.801 9.54508 116.684 9.06694 116.48 8.60246C116.285 8.13798 115.973 7.75546 115.543 7.45492C115.113 7.15437 114.527 7.0041 113.785 7.0041C113.293 7.0041 112.84 7.09631 112.426 7.28074C112.012 7.45833 111.656 7.72473 111.359 8.07992C111.062 8.43511 110.832 8.86885 110.668 9.38115C110.504 9.89344 110.422 10.4843 110.422 11.1537V11.584C110.422 12.11 110.504 12.6052 110.668 13.0697C110.84 13.5273 111.086 13.9303 111.406 14.2787C111.734 14.627 112.129 14.9003 112.59 15.0984C113.059 15.2964 113.59 15.3955 114.184 15.3955C114.949 15.3955 115.598 15.2589 116.129 14.9857C116.66 14.7124 117.125 14.347 117.523 13.8893L118.836 14.8012C118.562 15.1633 118.215 15.5082 117.793 15.8361C117.371 16.1639 116.852 16.4303 116.234 16.6352C115.625 16.8402 114.902 16.9426 114.066 16.9426Z" fill="#00B37E"/>
<path d="M123.887 1V16.7377H121.707V1H123.887Z" fill="#00B37E"/>
<path d="M129.535 7.78279V21H127.355V5.65164H129.348L129.535 7.78279ZM138.078 11.1025V11.3176C138.078 12.1236 137.969 12.8716 137.75 13.5615C137.531 14.2445 137.211 14.8388 136.789 15.3443C136.375 15.8497 135.863 16.2425 135.254 16.5225C134.645 16.8026 133.945 16.9426 133.156 16.9426C132.352 16.9426 131.641 16.8265 131.023 16.5943C130.406 16.362 129.883 16.0239 129.453 15.5799C129.023 15.1359 128.68 14.6031 128.422 13.9816C128.172 13.36 128 12.6598 127.906 11.8811V10.7336C128 9.91393 128.176 9.17964 128.434 8.53074C128.691 7.88183 129.031 7.32855 129.453 6.8709C129.883 6.40642 130.402 6.05464 131.012 5.81557C131.621 5.56967 132.324 5.44672 133.121 5.44672C133.918 5.44672 134.625 5.58333 135.242 5.85656C135.859 6.12295 136.379 6.50546 136.801 7.0041C137.223 7.50273 137.539 8.10041 137.75 8.79713C137.969 9.48702 138.078 10.2555 138.078 11.1025ZM135.898 11.3176V11.1025C135.898 10.5492 135.832 10.0301 135.699 9.54508C135.566 9.05328 135.359 8.62295 135.078 8.2541C134.805 7.87842 134.453 7.5847 134.023 7.37295C133.594 7.15437 133.082 7.04508 132.488 7.04508C131.941 7.04508 131.465 7.12705 131.059 7.29098C130.66 7.45492 130.32 7.67691 130.039 7.95697C129.758 8.23019 129.527 8.5444 129.348 8.89959C129.176 9.24795 129.047 9.60997 128.961 9.98566V12.6393C129.117 13.1175 129.336 13.5683 129.617 13.9918C129.898 14.4085 130.273 14.7466 130.742 15.0061C131.211 15.2589 131.801 15.3852 132.512 15.3852C133.098 15.3852 133.602 15.2794 134.023 15.0676C134.453 14.849 134.805 14.5519 135.078 14.1762C135.359 13.8005 135.566 13.3702 135.699 12.8852C135.832 12.3934 135.898 11.8709 135.898 11.3176Z" fill="#00B37E"/>
<mask id="mask0_2_39" style="mask-type:alpha" maskUnits="userSpaceOnUse" x="5" y="-5" width="24" height="24">
<circle cx="17" cy="7" r="12" fill="#D9D9D9"/>
</mask>
<g mask="url(#mask0_2_39)">
<path d="M16.6841 0.0525944C10.1489 0.0525944 7.21045 5.59312 7.21045 9.52628C7.21045 13.5842 11.0473 17.421 15.1052 17.421C18.1368 17.421 20.581 15.4 21.0515 12.5058C21.4162 10.2542 20.3615 7.50838 17.1831 6.44891C16.7857 6.31658 16.352 6.34754 15.9774 6.53498C15.6028 6.72242 15.318 7.05098 15.1857 7.44838C15.0534 7.84579 15.0843 8.27949 15.2718 8.65407C15.4592 9.02865 15.7878 9.31342 16.1852 9.44575C18.0373 10.0631 18.0262 11.4368 17.9331 12.0005C17.7578 13.09 16.7962 14.2631 15.1052 14.2631C12.8031 14.2631 10.3683 11.8284 10.3683 9.52628C10.3683 7.46575 11.9126 3.21049 16.6841 3.21049C21.2583 3.21049 24.5789 7.19417 24.5789 12.6842V36.3684C24.5789 42.0147 22.4441 45.3447 17.8131 46.701C17.9868 45.0952 18.1178 43.191 18.192 40.93C19.1457 35.9358 18.3547 29.6705 15.3878 23.7368C12.4431 17.8521 6.03098 14.3594 -0.439545 14.7447C-0.804282 6.66523 -5.23007 0.0525944 -14.2522 0.0525944C-23.6801 0.0525944 -24.0874 11.1052 -28.8243 18.051C-30.9574 21.1821 -20.2538 29.1952 -14.2522 29.1952L-14.1843 29.1921C-13.6285 29.2379 -12.9195 29.1779 -12.0338 28.9868C-11.1338 28.8258 -10.2211 28.5652 -9.32113 28.2147C-5.00902 26.8963 -2.41165 26.8079 -0.922703 27.5152C-2.04691 32.8331 -6.95744 37.3489 -10.158 42.6842C-14.8948 50.5789 -8.57902 55.3158 -5.42113 55.3158C-0.684285 55.3158 -0.684283 50.5789 -2.26323 50.5789C-5.42113 50.5789 -6.41902 45.6794 -5.42113 42.6842C-4.38218 39.5673 -1.30165 37.1247 0.69098 33.1268C0.275717 35.7794 -0.684283 38.8047 -0.684283 41.1052C-0.684283 48.3179 1.16309 50.5789 8.7894 50.5789C9.08624 50.5789 9.35782 50.5252 9.64361 50.4968C9.36184 50.5492 9.076 50.5767 8.7894 50.5789C1.37782 50.5789 0.105191 51.9936 0.105191 53.7368C0.105191 55.0142 0.894664 55.3158 2.47361 55.3158H13.5262C14.5541 55.3158 16.2547 55.311 17.3126 50.0721C24.2347 48.6147 27.7368 44.0231 27.7368 36.3684V12.6842C27.7368 5.48259 22.9841 0.0525944 16.6841 0.0525944Z" fill="#00B37E"/>
</g>
</svg>
