<svg width="163" height="87" viewBox="0 0 163 87" fill="none" xmlns="http://www.w3.org/2000/svg">
<path d="M12.9531 55.25H15.875L23.3281 73.7969L30.7656 55.25H33.7031L24.4531 78H22.1719L12.9531 55.25ZM12 55.25H14.5781L15 69.125V78H12V55.25ZM32.0625 55.25H34.6406V78H31.6406V69.125L32.0625 55.25Z" fill="#996DFF"/>
<path d="M38.7344 69.7344V69.375C38.7344 68.1562 38.9115 67.026 39.2656 65.9844C39.6198 64.9323 40.1302 64.0208 40.7969 63.25C41.4635 62.4688 42.2708 61.8646 43.2188 61.4375C44.1667 61 45.2292 60.7812 46.4062 60.7812C47.5938 60.7812 48.6615 61 49.6094 61.4375C50.5677 61.8646 51.3802 62.4688 52.0469 63.25C52.724 64.0208 53.2396 64.9323 53.5938 65.9844C53.9479 67.026 54.125 68.1562 54.125 69.375V69.7344C54.125 70.9531 53.9479 72.0833 53.5938 73.125C53.2396 74.1667 52.724 75.0781 52.0469 75.8594C51.3802 76.6302 50.5729 77.2344 49.625 77.6719C48.6875 78.099 47.625 78.3125 46.4375 78.3125C45.25 78.3125 44.1823 78.099 43.2344 77.6719C42.2865 77.2344 41.474 76.6302 40.7969 75.8594C40.1302 75.0781 39.6198 74.1667 39.2656 73.125C38.9115 72.0833 38.7344 70.9531 38.7344 69.7344ZM41.625 69.375V69.7344C41.625 70.5781 41.724 71.375 41.9219 72.125C42.1198 72.8646 42.4167 73.5208 42.8125 74.0938C43.2188 74.6667 43.724 75.1198 44.3281 75.4531C44.9323 75.776 45.6354 75.9375 46.4375 75.9375C47.2292 75.9375 47.9219 75.776 48.5156 75.4531C49.1198 75.1198 49.6198 74.6667 50.0156 74.0938C50.4115 73.5208 50.7083 72.8646 50.9062 72.125C51.1146 71.375 51.2188 70.5781 51.2188 69.7344V69.375C51.2188 68.5417 51.1146 67.7552 50.9062 67.0156C50.7083 66.2656 50.4062 65.6042 50 65.0312C49.6042 64.4479 49.1042 63.9896 48.5 63.6562C47.9062 63.3229 47.2083 63.1562 46.4062 63.1562C45.6146 63.1562 44.9167 63.3229 44.3125 63.6562C43.7188 63.9896 43.2188 64.4479 42.8125 65.0312C42.4167 65.6042 42.1198 66.2656 41.9219 67.0156C41.724 67.7552 41.625 68.5417 41.625 69.375Z" fill="#996DFF"/>
<path d="M60.6406 64.7031V78H57.75V61.0938H60.4844L60.6406 64.7031ZM59.9531 68.9062L58.75 68.8594C58.7604 67.7031 58.9323 66.6354 59.2656 65.6562C59.599 64.6667 60.0677 63.8073 60.6719 63.0781C61.276 62.349 61.9948 61.7865 62.8281 61.3906C63.6719 60.9844 64.6042 60.7812 65.625 60.7812C66.4583 60.7812 67.2083 60.8958 67.875 61.125C68.5417 61.3438 69.1094 61.6979 69.5781 62.1875C70.0573 62.6771 70.4219 63.3125 70.6719 64.0938C70.9219 64.8646 71.0469 65.8073 71.0469 66.9219V78H68.1406V66.8906C68.1406 66.0052 68.0104 65.2969 67.75 64.7656C67.4896 64.224 67.1094 63.8333 66.6094 63.5938C66.1094 63.3438 65.4948 63.2188 64.7656 63.2188C64.0469 63.2188 63.3906 63.3698 62.7969 63.6719C62.2135 63.974 61.7083 64.3906 61.2812 64.9219C60.8646 65.4531 60.5365 66.0625 60.2969 66.75C60.0677 67.4271 59.9531 68.1458 59.9531 68.9062Z" fill="#996DFF"/>
<path d="M78.3438 54V78H75.4375V54H78.3438ZM88.6719 61.0938L81.2969 68.9844L77.1719 73.2656L76.9375 70.1875L79.8906 66.6562L85.1406 61.0938H88.6719ZM86.0312 78L80 69.9375L81.5 67.3594L89.4375 78H86.0312Z" fill="#996DFF"/>
<path d="M105.859 65.0312V67.4844H93.5469V65.0312H105.859ZM94.0156 55.25V78H91V55.25H94.0156ZM108.484 55.25V78H105.484V55.25H108.484Z" fill="#00B37E"/>
<path d="M120.422 78.3125C119.245 78.3125 118.177 78.1146 117.219 77.7188C116.271 77.3125 115.453 76.7448 114.766 76.0156C114.089 75.2865 113.568 74.4219 113.203 73.4219C112.839 72.4219 112.656 71.3281 112.656 70.1406V69.4844C112.656 68.1094 112.859 66.8854 113.266 65.8125C113.672 64.7292 114.224 63.8125 114.922 63.0625C115.62 62.3125 116.411 61.7448 117.297 61.3594C118.182 60.974 119.099 60.7812 120.047 60.7812C121.255 60.7812 122.297 60.9896 123.172 61.4062C124.057 61.8229 124.781 62.4062 125.344 63.1562C125.906 63.8958 126.323 64.7708 126.594 65.7812C126.865 66.7812 127 67.875 127 69.0625V70.3594H114.375V68H124.109V67.7812C124.068 67.0312 123.911 66.3021 123.641 65.5938C123.38 64.8854 122.964 64.3021 122.391 63.8438C121.818 63.3854 121.036 63.1562 120.047 63.1562C119.391 63.1562 118.786 63.2969 118.234 63.5781C117.682 63.849 117.208 64.2552 116.812 64.7969C116.417 65.3385 116.109 66 115.891 66.7812C115.672 67.5625 115.562 68.4635 115.562 69.4844V70.1406C115.562 70.9427 115.672 71.6979 115.891 72.4062C116.12 73.1042 116.448 73.7188 116.875 74.25C117.312 74.7812 117.839 75.1979 118.453 75.5C119.078 75.8021 119.786 75.9531 120.578 75.9531C121.599 75.9531 122.464 75.7448 123.172 75.3281C123.88 74.9115 124.5 74.3542 125.031 73.6562L126.781 75.0469C126.417 75.599 125.953 76.125 125.391 76.625C124.828 77.125 124.135 77.5312 123.312 77.8438C122.5 78.1562 121.536 78.3125 120.422 78.3125Z" fill="#00B37E"/>
<path d="M133.516 54V78H130.609V54H133.516Z" fill="#00B37E"/>
<path d="M141.047 64.3438V84.5H138.141V61.0938H140.797L141.047 64.3438ZM152.438 69.4062V69.7344C152.438 70.9635 152.292 72.1042 152 73.1562C151.708 74.1979 151.281 75.1042 150.719 75.875C150.167 76.6458 149.484 77.2448 148.672 77.6719C147.859 78.099 146.927 78.3125 145.875 78.3125C144.802 78.3125 143.854 78.1354 143.031 77.7812C142.208 77.4271 141.51 76.9115 140.938 76.2344C140.365 75.5573 139.906 74.7448 139.562 73.7969C139.229 72.849 139 71.7812 138.875 70.5938V68.8438C139 67.5938 139.234 66.474 139.578 65.4844C139.922 64.4948 140.375 63.651 140.938 62.9531C141.51 62.2448 142.203 61.7083 143.016 61.3438C143.828 60.9688 144.766 60.7812 145.828 60.7812C146.891 60.7812 147.833 60.9896 148.656 61.4062C149.479 61.8125 150.172 62.3958 150.734 63.1562C151.297 63.9167 151.719 64.8281 152 65.8906C152.292 66.9427 152.438 68.1146 152.438 69.4062ZM149.531 69.7344V69.4062C149.531 68.5625 149.443 67.7708 149.266 67.0312C149.089 66.2812 148.812 65.625 148.438 65.0625C148.073 64.4896 147.604 64.0417 147.031 63.7188C146.458 63.3854 145.776 63.2188 144.984 63.2188C144.255 63.2188 143.62 63.3438 143.078 63.5938C142.547 63.8438 142.094 64.1823 141.719 64.6094C141.344 65.026 141.036 65.5052 140.797 66.0469C140.568 66.5781 140.396 67.1302 140.281 67.7031V71.75C140.49 72.4792 140.781 73.1667 141.156 73.8125C141.531 74.4479 142.031 74.9635 142.656 75.3594C143.281 75.7448 144.068 75.9375 145.016 75.9375C145.797 75.9375 146.469 75.776 147.031 75.4531C147.604 75.1198 148.073 74.6667 148.438 74.0938C148.812 73.5208 149.089 72.8646 149.266 72.125C149.443 71.375 149.531 70.5781 149.531 69.7344Z" fill="#00B37E"/>
<path d="M95.25 1C90.0762 1 87.75 5.38625 87.75 8.5C87.75 11.7125 90.7875 14.75 94 14.75C96.4 14.75 98.335 13.15 98.7075 10.8587C98.9962 9.07625 98.1612 6.9025 95.645 6.06375C95.3304 5.95899 94.987 5.9835 94.6905 6.13189C94.394 6.28028 94.1685 6.54039 94.0637 6.855C93.959 7.16961 93.9835 7.51296 94.1319 7.8095C94.2803 8.10604 94.5404 8.33149 94.855 8.43625C96.3212 8.925 96.3125 10.0125 96.2387 10.4587C96.1 11.3212 95.3387 12.25 94 12.25C92.1775 12.25 90.25 10.3225 90.25 8.5C90.25 6.86875 91.4725 3.5 95.25 3.5C98.8712 3.5 101.5 6.65375 101.5 11V29.75C101.5 34.22 99.81 36.8563 96.1437 37.93C96.2812 36.6588 96.385 35.1512 96.4437 33.3612C97.1987 29.4075 96.5725 24.4475 94.2237 19.75C91.8925 15.0913 86.8162 12.3263 81.6937 12.6313C81.405 6.235 77.9012 1 70.7587 1C63.295 1 62.9725 9.75 59.2225 15.2488C57.5337 17.7275 66.0075 24.0713 70.7587 24.0713L70.8125 24.0687C71.2525 24.105 71.8137 24.0575 72.515 23.9063C73.2275 23.7788 73.95 23.5725 74.6625 23.295C78.0762 22.2513 80.1325 22.1812 81.3112 22.7412C80.4212 26.9512 76.5337 30.5263 74 34.75C70.25 41 75.25 44.75 77.75 44.75C81.5 44.75 81.5 41 80.25 41C77.75 41 76.96 37.1212 77.75 34.75C78.5725 32.2825 81.0112 30.3487 82.5887 27.1837C82.26 29.2837 81.5 31.6787 81.5 33.5C81.5 39.21 82.9625 41 89 41C89.235 41 89.45 40.9575 89.6762 40.935C89.4532 40.9765 89.2269 40.9982 89 41C83.1325 41 82.125 42.12 82.125 43.5C82.125 44.5113 82.75 44.75 84 44.75H92.75C93.5637 44.75 94.91 44.7462 95.7475 40.5987C101.227 39.445 104 35.81 104 29.75V11C104 5.29875 100.237 1 95.25 1Z" fill="#00B37E"/>
<path d="M72.9725 9.5C72.9722 8.24044 72.4716 7.03258 71.5808 6.14205C70.6901 5.25152 69.4821 4.75125 68.2225 4.75125C67.5987 4.75108 66.981 4.87378 66.4047 5.11234C65.8283 5.3509 65.3046 5.70064 64.8634 6.14161C64.4222 6.58257 64.0722 7.10611 63.8333 7.68235C63.5944 8.25858 63.4714 8.87622 63.4713 9.5C63.4713 9.84375 63.5125 10.1775 63.5813 10.5012C62.29 10.9737 61.0863 11.9325 60.2625 13.5012C59.9496 14.1036 59.6024 14.6875 59.2225 15.25C58.3338 16.555 60.26 18.93 62.9775 20.8875C65.4225 22.6487 70.4725 21.5362 70.4725 14.7512C70.4725 14.3887 70.4238 14.05 70.3513 13.7237C71.1371 13.3323 71.7985 12.7299 72.2615 11.984C72.7244 11.238 72.9706 10.3779 72.9725 9.5V9.5ZM76.2775 7.875C76.2775 10.2912 75.9588 12.25 78.375 12.25C79.5353 12.25 80.6481 11.7891 81.4686 10.9686C82.2891 10.1481 82.75 9.03532 82.75 7.875C82.75 6.71468 82.2891 5.60188 81.4686 4.78141C80.6481 3.96094 79.5353 3.5 78.375 3.5C75.9588 3.5 76.2775 5.45875 76.2775 7.875Z" fill="white"/>
<path d="M68.2938 10.2138C68.2938 11.3375 67.6875 12.25 66.9375 12.25C66.1863 12.25 65.58 11.3375 65.58 10.2138C65.58 9.09 66.1863 8.17875 66.9375 8.17875C67.6875 8.17875 68.2938 9.09 68.2938 10.2138" fill="#00B37E"/>
<path d="M64 14.75C64 15.44 61.2875 17.25 60.1437 17.25C59 17.25 59 16.69 59 16H60.1437C61.5012 16 64 14.06 64 14.75Z" fill="#00B37E"/>
</svg>
